# Blender v2.78 (sub 0) OBJ File: 'SlabScaled.blend'
# www.blender.org
mtllib SlabScaled.mtl
o Cube
v 0.327806 -0.190158 0.014806
v -0.316999 -0.190158 0.014806
v -0.316999 -0.190158 0.263933
v 0.327806 -0.190158 0.263932
v 0.327806 -0.158234 0.014806
v -0.316999 -0.158234 0.014807
v -0.316999 -0.158234 0.263933
v 0.327806 -0.158234 0.263933
vn -0.5773 0.5773 0.5773
vn 0.5773 0.5773 -0.5773
vn -0.5773 0.5773 -0.5773
vn -0.5773 -0.5773 0.5773
vn 0.5773 -0.5773 -0.5773
vn 0.5773 -0.5773 0.5773
vn 0.5773 0.5773 0.5773
vn -0.5773 -0.5773 -0.5773
usemtl Material
s 1
f 1//1 3//2 4//3
f 5//4 7//5 6//6
f 5//4 2//7 1//1
f 6//6 3//2 2//7
f 3//2 8//8 4//3
f 1//1 8//8 5//4
f 1//1 2//7 3//2
f 5//4 8//8 7//5
f 5//4 6//6 2//7
f 6//6 7//5 3//2
f 3//2 7//5 8//8
f 1//1 4//3 8//8
